<svg width="204" height="99" viewBox="0 0 204 99" fill="none" xmlns="http://www.w3.org/2000/svg">
<path d="M0 2C0 0.895432 0.895431 0 2 0H202C203.105 0 204 0.895431 204 2V97C204 98.1046 203.105 99 202 99H1.99999C0.895424 99 0 98.1046 0 97V2Z" fill="#FEF3D9"/>
<path d="M25.496 54.6C25.208 54.6 25.064 54.456 25.064 54.168C25.064 53.912 25.176 53.736 25.4 53.64C31.736 50.376 36.392 45.496 39.368 39C37.864 39.288 36.296 39.608 34.664 39.96L33.176 40.296C32.856 40.36 32.6 40.392 32.408 40.392C31.896 40.392 31.416 40.248 30.968 39.96C30.872 39.864 30.664 39.688 30.344 39.432C30.056 39.144 29.768 38.824 29.48 38.472C29.224 38.12 28.952 37.704 28.664 37.224C28.536 37 28.472 36.792 28.472 36.6C28.472 36.376 28.552 36.2 28.712 36.072C28.872 35.912 29.064 35.832 29.288 35.832C31.88 35.736 35.784 35.352 41 34.68C41.064 34.488 41.128 34.264 41.192 34.008C41.288 33.752 41.368 33.448 41.432 33.096L40.808 33.24C40.296 33.304 39.992 33.336 39.896 33.336C39.608 33.336 39.352 33.288 39.128 33.192C38.936 33.096 38.632 32.904 38.216 32.616C37.96 32.36 37.688 32.008 37.4 31.56C37.112 31.08 36.936 30.728 36.872 30.504C36.84 30.408 36.824 30.28 36.824 30.12C36.824 29.736 37.112 29.544 37.688 29.544C38.552 29.512 40.12 29.256 42.392 28.776C42.488 28.2 42.648 27.144 42.872 25.608C40.536 25.832 38.824 25.912 37.736 25.848C37.576 25.848 37.272 25.736 36.824 25.512C36.408 25.288 36.2 25.08 36.2 24.888C36.2 24.728 36.392 24.6 36.776 24.504C38.76 24.088 41.064 23.352 43.688 22.296C46.344 21.24 48.264 20.344 49.448 19.608C49.736 19.416 50.232 19.128 50.936 18.744C51.512 18.424 51.96 18.152 52.28 17.928C52.728 17.544 53.16 17.352 53.576 17.352C54.184 17.352 54.808 17.672 55.448 18.312C56.184 18.92 56.792 19.64 57.272 20.472C57.784 21.272 57.944 21.88 57.752 22.296C57.656 22.584 57.368 22.824 56.888 23.016C56.44 23.208 55.88 23.384 55.208 23.544C54.568 23.704 54.12 23.816 53.864 23.88C53 24.104 51.528 24.392 49.448 24.744C49.576 24.904 49.64 25.112 49.64 25.368C49.64 25.624 49.528 26.2 49.304 27.096L50.792 26.76L52.952 26.232C53.272 26.168 53.512 26.136 53.672 26.136C54.184 26.136 54.568 26.264 54.824 26.52C55.528 27.064 56.152 28.072 56.696 29.544C56.76 29.8 56.792 29.96 56.792 30.024C56.792 30.536 56.328 30.808 55.4 30.84C54.12 30.872 51.608 31.224 47.864 31.896C47.544 32.856 47.304 33.528 47.144 33.912C53.448 33.08 57.784 32.408 60.152 31.896C60.856 31.704 61.368 31.608 61.688 31.608C62.04 31.608 62.328 31.688 62.552 31.848C63.192 32.264 63.656 32.664 63.944 33.048C64.232 33.4 64.6 34.008 65.048 34.872C65.304 35.448 65.432 35.928 65.432 36.312C65.432 36.792 65.256 37.144 64.904 37.368C64.552 37.592 64.024 37.672 63.32 37.608C61.208 37.384 59 37.272 56.696 37.272C53.24 37.272 49.528 37.528 45.56 38.04L44.6 40.392H44.648C45.864 40.232 47.176 40.024 48.584 39.768C50.024 39.512 51 39.304 51.512 39.144C51.896 39.016 52.424 38.808 53.096 38.52C53.736 38.232 54.168 38.088 54.392 38.088C54.872 38.088 55.816 38.568 57.224 39.528C58.664 40.488 59.512 41.224 59.768 41.736C59.864 41.96 59.8 42.344 59.576 42.888C59.384 43.4 59.272 43.736 59.24 43.896C59.048 44.6 58.904 46.472 58.808 49.512C58.744 52.52 58.712 55.352 58.712 58.008C58.712 59.448 58.296 60.616 57.464 61.512C56.632 62.44 55.608 62.904 54.392 62.904C54.104 62.904 53.784 62.744 53.432 62.424C53.08 62.104 52.808 61.688 52.616 61.176C52.392 60.632 52.184 60.216 51.992 59.928C51.8 59.64 51.496 59.32 51.08 58.968C49.288 58.968 47.304 59.064 45.128 59.256V59.64C45.096 60.44 44.936 61.08 44.648 61.56C44.36 62.072 44.056 62.392 43.736 62.52C43.32 62.68 42.696 62.552 41.864 62.136C41.032 61.72 40.52 61.304 40.328 60.888C40.104 60.248 40.024 59.416 40.088 58.392C40.28 57.304 40.376 54.6 40.376 50.28V47.448C38.776 49.304 36.792 50.856 34.424 52.104C32.056 53.32 29.112 54.152 25.592 54.6H25.496ZM45.128 43.752C45.16 44.2 45.176 44.92 45.176 45.912L49.208 45.192C49.336 45.16 49.464 45.128 49.592 45.096C49.752 45.064 49.928 45.048 50.12 45.048C50.216 45.048 50.36 45.08 50.552 45.144C50.904 45.24 51.24 45.56 51.56 46.104C51.88 46.616 52.072 47.032 52.136 47.352C52.232 47.736 52.168 48.072 51.944 48.36C51.72 48.616 51.336 48.744 50.792 48.744C49.608 48.744 48.6 48.84 47.768 49.032C46.968 49.192 46.488 49.288 46.328 49.32H46.184C45.832 49.32 45.496 49.16 45.176 48.84V51.192C45.752 51.128 47.096 50.888 49.208 50.472C49.656 50.408 49.944 50.376 50.072 50.376C50.296 50.376 50.456 50.392 50.552 50.424C50.904 50.52 51.24 50.84 51.56 51.384C51.88 51.896 52.072 52.312 52.136 52.632C52.232 53.048 52.168 53.384 51.944 53.64C51.72 53.896 51.336 54.024 50.792 54.024C49.608 54.024 48.6 54.12 47.768 54.312C46.968 54.472 46.488 54.568 46.328 54.6H46.184C45.832 54.6 45.496 54.44 45.176 54.12V55.896C47.448 55.672 49.896 55.512 52.52 55.416H52.664V43.416C52.664 43.256 52.6 43.128 52.472 43.032C52.344 42.904 52.232 42.856 52.136 42.888C50.536 43.112 49.016 43.304 47.576 43.464L45.128 43.752Z" fill="#9C7047"/>
<path d="M90.536 49.704C89.448 49.704 88.376 49.096 87.32 47.88C87.032 47.464 86.792 46.984 86.6 46.44C86.408 45.864 86.216 44.984 86.024 43.8C85.704 41.464 85.32 39.32 84.872 37.368C84.424 35.416 83.832 33.208 83.096 30.744C83 30.456 82.952 30.2 82.952 29.976C82.952 29.4 83.416 29.112 84.344 29.112C85.272 29.112 86.2 29.224 87.128 29.448C88.056 29.672 88.744 29.944 89.192 30.264C89.416 30.392 89.592 30.584 89.72 30.84C91.704 30.712 94.488 30.456 98.072 30.072C98.072 27.352 98.04 24.712 97.976 22.152C97.944 21.288 97.88 20.568 97.784 19.992C97.688 19.416 97.528 18.856 97.304 18.312C97.176 17.864 97.112 17.576 97.112 17.448C97.112 16.968 97.576 16.792 98.504 16.92C99.752 17.048 100.904 17.272 101.96 17.592C103.048 17.88 103.896 18.184 104.504 18.504C104.856 18.728 105.032 19.048 105.032 19.464C105.032 19.752 104.952 20.104 104.792 20.52C104.6 21.064 104.472 21.896 104.408 23.016C104.312 25.8 104.264 27.912 104.264 29.352C109.384 28.68 112.52 28.072 113.672 27.528C114.056 27.336 114.392 27.24 114.68 27.24C115.032 27.24 115.368 27.352 115.688 27.576C117.448 28.824 118.888 30.168 120.008 31.608C120.264 31.928 120.392 32.248 120.392 32.568C120.392 33.016 120.152 33.416 119.672 33.768C119.096 34.248 118.68 34.904 118.424 35.736C117.528 38.392 116.68 41.176 115.88 44.088C115.656 44.824 115.192 45.512 114.488 46.152C113.784 46.76 112.984 47.192 112.088 47.448C111.704 47.576 111.304 47.64 110.888 47.64C110.056 47.64 109.368 47.16 108.824 46.2C108.632 45.848 108.376 45.464 108.056 45.048C107.16 45.08 105.848 45.16 104.12 45.288L104.168 54.504C104.2 55.752 104.216 57.272 104.216 59.064C104.216 60.984 103.96 62.504 103.448 63.624C102.968 64.744 102.36 65.304 101.624 65.304C101.432 65.304 101.208 65.256 100.952 65.16C99.928 64.616 99.08 63.544 98.408 61.944C97.768 60.376 97.528 58.76 97.688 57.096C97.88 54.376 98.008 50.68 98.072 46.008C96.184 46.264 94.36 46.632 92.6 47.112C92.696 47.944 92.536 48.584 92.12 49.032C91.736 49.48 91.208 49.704 90.536 49.704ZM91.736 42.168C93.784 42.008 95.912 41.816 98.12 41.592V34.2C95.4 34.616 93.176 35.032 91.448 35.448C91.16 35.544 90.872 35.592 90.584 35.592L91.736 42.168ZM110.216 40.248C110.92 38.232 111.544 35.88 112.088 33.192V33.096C112.088 32.872 112.008 32.76 111.848 32.76C109.256 32.856 106.712 33.064 104.216 33.384C104.184 34.984 104.168 37.512 104.168 40.968L110.216 40.248Z" fill="#9C7047"/>
<path d="M146.744 54.744C149.304 54.424 152.52 54.12 156.392 53.832C160.264 53.544 163.512 53.368 166.136 53.304C164.344 51.544 162.92 50.2 161.864 49.272C160.808 48.312 159.768 47.528 158.744 46.92C158.296 46.6 158.04 46.28 157.976 45.96C156.856 48.296 155.416 50.088 153.656 51.336C151.928 52.552 149.816 53.64 147.32 54.6L146.744 54.744ZM137.336 58.056C137.208 57.768 137.144 57.464 137.144 57.144C137.144 56.6 137.432 55.976 138.008 55.272C138.424 54.856 138.68 54.472 138.776 54.12C138.872 53.736 138.968 53.08 139.064 52.152C139.576 46.36 139.832 40.968 139.832 35.976C139.832 30.344 139.464 26.008 138.728 22.968C138.696 22.904 138.68 22.792 138.68 22.632C138.68 22.152 139.048 21.912 139.784 21.912C140.584 21.912 141.464 22.024 142.424 22.248C143.384 22.472 144.168 22.76 144.776 23.112C148.392 22.952 152.456 22.632 156.968 22.152C161.48 21.672 164.856 21.096 167.096 20.424C167.48 20.264 167.864 20.184 168.248 20.184C168.76 20.184 169.176 20.328 169.496 20.616C169.944 20.968 170.328 21.4 170.648 21.912C171 22.392 171.4 23.032 171.848 23.832C172.04 24.152 172.136 24.568 172.136 25.08C172.136 25.656 171.96 26.136 171.608 26.52C171.448 26.744 171.304 26.904 171.176 27C171.048 27.064 170.872 27.096 170.648 27.096C170.36 27.096 169.976 27.048 169.496 26.952C168.344 26.856 166.744 26.808 164.696 26.808C161.432 26.808 157.896 26.92 154.088 27.144C154.632 27.496 155.128 27.912 155.576 28.392C155.832 28.648 155.96 28.984 155.96 29.4C155.96 29.784 155.88 30.184 155.72 30.6L159.128 29.736L162.152 29.016C162.6 28.952 162.888 28.92 163.016 28.92C163.464 28.92 163.832 29.048 164.12 29.304C164.888 29.816 165.656 30.808 166.424 32.28C166.52 32.472 166.568 32.648 166.568 32.808C166.568 33.224 166.216 33.528 165.512 33.72C164.52 33.944 162.936 34.216 160.76 34.536C161.08 34.952 161.24 35.416 161.24 35.928C161.24 36.376 161.128 36.856 160.904 37.368C160.84 37.528 160.776 37.704 160.712 37.896C163.88 37.192 165.752 36.76 166.328 36.6C166.776 36.504 167.112 36.456 167.336 36.456C167.784 36.456 168.184 36.616 168.536 36.936C168.984 37.224 169.448 37.672 169.928 38.28C170.44 38.856 170.856 39.432 171.176 40.008C171.304 40.232 171.368 40.472 171.368 40.728C171.368 40.984 171.288 41.208 171.128 41.4C170.968 41.56 170.728 41.656 170.408 41.688L169.112 41.832C165.912 42.152 162.584 42.536 159.128 42.984C158.808 43.976 158.504 44.808 158.216 45.48C158.312 45.384 158.568 45.272 158.984 45.144C159.56 45.048 160.232 45 161 45C162.088 45 163.208 45.112 164.36 45.336C165.512 45.56 166.52 45.88 167.384 46.296C168.28 46.712 168.968 47.272 169.448 47.976C169.96 48.68 170.216 49.416 170.216 50.184C170.216 51.272 169.768 52.312 168.872 53.304C169.544 53.304 170.056 53.352 170.408 53.448C170.792 53.544 171.176 53.72 171.56 53.976C172.392 54.584 173.144 55.352 173.816 56.28C174.488 57.176 174.824 58.12 174.824 59.112C174.824 59.688 174.68 60.088 174.392 60.312C174.104 60.568 173.768 60.664 173.384 60.6C172.264 60.344 169.992 60.12 166.568 59.928C163.144 59.736 159.624 59.64 156.008 59.64C151.304 59.64 147.784 59.8 145.448 60.12C143.144 60.472 141.64 60.792 140.936 61.08C140.456 61.24 140.168 61.32 140.072 61.32C139.848 61.32 139.672 61.24 139.544 61.08C139.224 60.888 138.904 60.552 138.584 60.072C138.264 59.624 137.848 58.952 137.336 58.056ZM146.36 54.792H146.264C145.944 54.792 145.768 54.712 145.736 54.552C145.704 54.392 145.752 54.248 145.88 54.12C147.416 52.776 148.792 51.224 150.008 49.464C151.256 47.704 152.248 45.88 152.984 43.992C151.864 44.184 151 44.408 150.392 44.664C150.232 44.728 150.008 44.76 149.72 44.76C149.304 44.76 148.92 44.68 148.568 44.52C148.216 44.328 147.992 44.216 147.896 44.184C147.512 43.992 147.096 43.64 146.648 43.128C146.2 42.584 145.848 42.056 145.592 41.544C145.528 41.288 145.496 41.112 145.496 41.016C145.496 40.504 145.752 40.232 146.264 40.2C147.896 40.168 150.52 39.816 154.136 39.144C154.296 37.384 154.36 36.12 154.328 35.352C153.72 35.288 153.192 35.112 152.744 34.824C150.536 36.936 148.104 38.488 145.448 39.48C145.128 47.032 144.952 52.2 144.92 54.984L146.36 54.792ZM145.496 37.752C146.616 36.472 147.544 35.048 148.28 33.48C149.048 31.88 149.544 30.328 149.768 28.824C149.864 28.344 149.912 27.912 149.912 27.528L148.76 27.72C148.344 27.816 147.944 27.864 147.56 27.864C146.984 27.864 146.44 27.752 145.928 27.528L145.496 37.752Z" fill="#9C7047"/>
<path d="M53.1543 82V72.748H54.3086V76.832C54.918 75.9414 55.6641 75.4961 56.5469 75.4961C57.0977 75.4961 57.5371 75.6719 57.8652 76.0234C58.1934 76.3711 58.3574 76.8398 58.3574 77.4297V82H57.2031V77.8047C57.2031 77.332 57.1328 76.9961 56.9922 76.7969C56.8555 76.5938 56.627 76.4922 56.3066 76.4922C55.5996 76.4922 54.9336 76.9551 54.3086 77.8809V82H53.1543Z" fill="#744D2E"/>
<path d="M62.5176 82.1465C61.9316 82.1465 61.4746 81.9785 61.1465 81.6426C60.8184 81.3066 60.6543 80.8398 60.6543 80.2422V76.5039H59.8574V75.6367H60.6543V74.4824L61.8086 74.3711V75.6367H63.4727V76.5039H61.8086V80.0312C61.8086 80.8633 62.168 81.2793 62.8867 81.2793C63.0391 81.2793 63.2246 81.2539 63.4434 81.2031V82C63.0879 82.0977 62.7793 82.1465 62.5176 82.1465Z" fill="#744D2E"/>
<path d="M67.0059 82.1465C66.4199 82.1465 65.9629 81.9785 65.6348 81.6426C65.3066 81.3066 65.1426 80.8398 65.1426 80.2422V76.5039H64.3457V75.6367H65.1426V74.4824L66.2969 74.3711V75.6367H67.9609V76.5039H66.2969V80.0312C66.2969 80.8633 66.6562 81.2793 67.375 81.2793C67.5273 81.2793 67.7129 81.2539 67.9316 81.2031V82C67.5762 82.0977 67.2676 82.1465 67.0059 82.1465Z" fill="#744D2E"/>
<path d="M69.584 84.3145V75.6367H70.7383V76.832C71.2109 75.9414 71.9199 75.4961 72.8652 75.4961C73.6309 75.4961 74.2324 75.7754 74.6699 76.334C75.1113 76.8926 75.332 77.6562 75.332 78.625C75.332 79.6797 75.082 80.5312 74.582 81.1797C74.0859 81.8242 73.4316 82.1465 72.6191 82.1465C71.8652 82.1465 71.2383 81.8574 70.7383 81.2793V84.3145H69.584ZM70.7383 80.4824C71.332 81.0137 71.8984 81.2793 72.4375 81.2793C73.5469 81.2793 74.1016 80.4336 74.1016 78.7422C74.1016 77.25 73.6094 76.5039 72.625 76.5039C71.9805 76.5039 71.3516 76.8535 70.7383 77.5527V80.4824Z" fill="#744D2E"/>
<path d="M78.8301 82.1465C78.3027 82.1465 77.6621 82.0234 76.9082 81.7773V80.7168C77.6621 81.0918 78.3184 81.2793 78.877 81.2793C79.209 81.2793 79.4844 81.1895 79.7031 81.0098C79.9219 80.8301 80.0312 80.6055 80.0312 80.3359C80.0312 79.9414 79.7246 79.6152 79.1113 79.3574L78.4375 79.0703C77.4414 78.6562 76.9434 78.0605 76.9434 77.2832C76.9434 76.7285 77.1387 76.293 77.5293 75.9766C77.9238 75.6562 78.4629 75.4961 79.1465 75.4961C79.502 75.4961 79.9414 75.5449 80.4648 75.6426L80.7051 75.6895V76.6504C80.0605 76.459 79.5488 76.3633 79.1699 76.3633C78.4277 76.3633 78.0566 76.6328 78.0566 77.1719C78.0566 77.5195 78.3379 77.8125 78.9004 78.0508L79.457 78.2852C80.0859 78.5508 80.5312 78.832 80.793 79.1289C81.0547 79.4219 81.1855 79.7891 81.1855 80.2305C81.1855 80.7891 80.9648 81.248 80.5234 81.6074C80.082 81.9668 79.5176 82.1465 78.8301 82.1465Z" fill="#744D2E"/>
<path d="M83.4238 82V80.8457H84.5781V82H83.4238ZM83.4238 76.7969V75.6367H84.5781V76.7969H83.4238Z" fill="#744D2E"/>
<path d="M87.0332 83.7344L90.1562 73.3281H91.0645L87.9414 83.7344H87.0332Z" fill="#744D2E"/>
<path d="M93.3262 83.7344L96.4492 73.3281H97.3574L94.2344 83.7344H93.3262Z" fill="#744D2E"/>
<path d="M99.6426 82V72.748H100.797V78.7246L103.492 75.6367H104.734L102.162 78.6074L105.268 82H103.791L100.797 78.7363V82H99.6426Z" fill="#744D2E"/>
<path d="M109.943 81.1914C109.252 81.8281 108.586 82.1465 107.945 82.1465C107.418 82.1465 106.98 81.9824 106.633 81.6543C106.285 81.3223 106.111 80.9043 106.111 80.4004C106.111 79.7051 106.402 79.1719 106.984 78.8008C107.57 78.4258 108.408 78.2383 109.498 78.2383H109.773V77.4707C109.773 76.7324 109.395 76.3633 108.637 76.3633C108.027 76.3633 107.369 76.5508 106.662 76.9258V75.9707C107.439 75.6543 108.168 75.4961 108.848 75.4961C109.559 75.4961 110.082 75.6562 110.418 75.9766C110.758 76.2969 110.928 76.7949 110.928 77.4707V80.3535C110.928 81.0137 111.131 81.3438 111.537 81.3438C111.588 81.3438 111.662 81.3359 111.76 81.3203L111.842 81.959C111.58 82.084 111.291 82.1465 110.975 82.1465C110.436 82.1465 110.092 81.8281 109.943 81.1914ZM109.773 80.5645V78.918L109.387 78.9062C108.754 78.9062 108.242 79.0273 107.852 79.2695C107.461 79.5078 107.266 79.8223 107.266 80.2129C107.266 80.4902 107.363 80.7246 107.559 80.916C107.754 81.1074 107.992 81.2031 108.273 81.2031C108.754 81.2031 109.254 80.9902 109.773 80.5645Z" fill="#744D2E"/>
<path d="M113.295 82V75.6367H114.449V76.832C115.059 75.9414 115.805 75.4961 116.688 75.4961C117.238 75.4961 117.678 75.6719 118.006 76.0234C118.334 76.3711 118.498 76.8398 118.498 77.4297V82H117.344V77.8047C117.344 77.332 117.273 76.9961 117.133 76.7969C116.996 76.5938 116.768 76.4922 116.447 76.4922C115.74 76.4922 115.074 76.9551 114.449 77.8809V82H113.295Z" fill="#744D2E"/>
<path d="M120.314 82V81.1328L124.252 76.5039H120.496V75.6367H125.676V76.5039L121.738 81.1328H125.752V82H120.314Z" fill="#744D2E"/>
<path d="M127.996 84.3145L129.027 82L126.566 75.6367H127.814L129.637 80.4297L131.582 75.6367H132.672L129.197 84.3145H127.996Z" fill="#744D2E"/>
<path d="M133.914 82V80.5527H135.361V82H133.914Z" fill="#744D2E"/>
<path d="M140.178 82.1465C139.318 82.1465 138.605 81.8281 138.039 81.1914C137.473 80.5547 137.189 79.752 137.189 78.7832C137.189 77.748 137.469 76.9414 138.027 76.3633C138.59 75.7852 139.373 75.4961 140.377 75.4961C140.873 75.4961 141.428 75.5645 142.041 75.7012V76.668C141.389 76.4766 140.857 76.3809 140.447 76.3809C139.857 76.3809 139.383 76.6035 139.023 77.0488C138.668 77.4902 138.49 78.0801 138.49 78.8184C138.49 79.5332 138.674 80.1113 139.041 80.5527C139.408 80.9941 139.889 81.2148 140.482 81.2148C141.01 81.2148 141.553 81.0801 142.111 80.8105V81.8066C141.365 82.0332 140.721 82.1465 140.178 82.1465Z" fill="#744D2E"/>
<path d="M143.846 82V75.6367H145V76.832C145.609 75.9414 146.355 75.4961 147.238 75.4961C147.789 75.4961 148.229 75.6719 148.557 76.0234C148.885 76.3711 149.049 76.8398 149.049 77.4297V82H147.895V77.8047C147.895 77.332 147.824 76.9961 147.684 76.7969C147.547 76.5938 147.318 76.4922 146.998 76.4922C146.291 76.4922 145.625 76.9551 145 77.8809V82H143.846Z" fill="#744D2E"/>
</svg>
