<svg width="137" height="70" viewBox="0 0 137 70" fill="none" xmlns="http://www.w3.org/2000/svg">
<path d="M0.432 37.7204C0.144 37.7204 0 37.5764 0 37.2884C0 37.0324 0.112 36.8564 0.336 36.7604C6.672 33.4964 11.328 28.6164 14.304 22.1204C12.8 22.4084 11.232 22.7284 9.6 23.0804L8.112 23.4164C7.792 23.4804 7.536 23.5124 7.344 23.5124C6.832 23.5124 6.352 23.3684 5.904 23.0804C5.808 22.9844 5.6 22.8084 5.28 22.5524C4.992 22.2644 4.704 21.9444 4.416 21.5924C4.16 21.2404 3.888 20.8244 3.6 20.3444C3.472 20.1204 3.408 19.9124 3.408 19.7204C3.408 19.4964 3.488 19.3204 3.648 19.1924C3.808 19.0324 4 18.9524 4.224 18.9524C6.816 18.8564 10.72 18.4724 15.936 17.8004C16 17.6084 16.064 17.3844 16.128 17.1284C16.224 16.8724 16.304 16.5684 16.368 16.2164L15.744 16.3604C15.232 16.4244 14.928 16.4564 14.832 16.4564C14.544 16.4564 14.288 16.4084 14.064 16.3124C13.872 16.2164 13.568 16.0244 13.152 15.7364C12.896 15.4804 12.624 15.1284 12.336 14.6804C12.048 14.2004 11.872 13.8484 11.808 13.6244C11.776 13.5284 11.76 13.4004 11.76 13.2404C11.76 12.8564 12.048 12.6644 12.624 12.6644C13.488 12.6324 15.056 12.3764 17.328 11.8964C17.424 11.3204 17.584 10.2644 17.808 8.72842C15.472 8.95242 13.76 9.03242 12.672 8.96842C12.512 8.96842 12.208 8.85642 11.76 8.63242C11.344 8.40842 11.136 8.20042 11.136 8.00842C11.136 7.84842 11.328 7.72042 11.712 7.62442C13.696 7.20842 16 6.47242 18.624 5.41642C21.28 4.36042 23.2 3.46442 24.384 2.72842C24.672 2.53642 25.168 2.24842 25.872 1.86442C26.448 1.54442 26.896 1.27242 27.216 1.04842C27.664 0.664422 28.096 0.472421 28.512 0.472421C29.12 0.472421 29.744 0.792421 30.384 1.43242C31.12 2.04042 31.728 2.76042 32.208 3.59242C32.72 4.39242 32.88 5.00042 32.688 5.41642C32.592 5.70442 32.304 5.94442 31.824 6.13642C31.376 6.32842 30.816 6.50442 30.144 6.66442C29.504 6.82442 29.056 6.93642 28.8 7.00042C27.936 7.22442 26.464 7.51242 24.384 7.86442C24.512 8.02442 24.576 8.23242 24.576 8.48842C24.576 8.74442 24.464 9.32042 24.24 10.2164L25.728 9.88042L27.888 9.35242C28.208 9.28842 28.448 9.25642 28.608 9.25642C29.12 9.25642 29.504 9.38442 29.76 9.64042C30.464 10.1844 31.088 11.1924 31.632 12.6644C31.696 12.9204 31.728 13.0804 31.728 13.1444C31.728 13.6564 31.264 13.9284 30.336 13.9604C29.056 13.9924 26.544 14.3444 22.8 15.0164C22.48 15.9764 22.24 16.6484 22.08 17.0324C28.384 16.2004 32.72 15.5284 35.088 15.0164C35.792 14.8244 36.304 14.7284 36.624 14.7284C36.976 14.7284 37.264 14.8084 37.488 14.9684C38.128 15.3844 38.592 15.7844 38.88 16.1684C39.168 16.5204 39.536 17.1284 39.984 17.9924C40.24 18.5684 40.368 19.0484 40.368 19.4324C40.368 19.9124 40.192 20.2644 39.84 20.4884C39.488 20.7124 38.96 20.7924 38.256 20.7284C36.144 20.5044 33.936 20.3924 31.632 20.3924C28.176 20.3924 24.464 20.6484 20.496 21.1604L19.536 23.5124H19.584C20.8 23.3524 22.112 23.1444 23.52 22.8884C24.96 22.6324 25.936 22.4244 26.448 22.2644C26.832 22.1364 27.36 21.9284 28.032 21.6404C28.672 21.3524 29.104 21.2084 29.328 21.2084C29.808 21.2084 30.752 21.6884 32.16 22.6484C33.6 23.6084 34.448 24.3444 34.704 24.8564C34.8 25.0804 34.736 25.4644 34.512 26.0084C34.32 26.5204 34.208 26.8564 34.176 27.0164C33.984 27.7204 33.84 29.5924 33.744 32.6324C33.68 35.6404 33.648 38.4724 33.648 41.1284C33.648 42.5684 33.232 43.7364 32.4 44.6324C31.568 45.5604 30.544 46.0244 29.328 46.0244C29.04 46.0244 28.72 45.8644 28.368 45.5444C28.016 45.2244 27.744 44.8084 27.552 44.2964C27.328 43.7524 27.12 43.3364 26.928 43.0484C26.736 42.7604 26.432 42.4404 26.016 42.0884C24.224 42.0884 22.24 42.1844 20.064 42.3764V42.7604C20.032 43.5604 19.872 44.2004 19.584 44.6804C19.296 45.1924 18.992 45.5124 18.672 45.6404C18.256 45.8004 17.632 45.6724 16.8 45.2564C15.968 44.8404 15.456 44.4244 15.264 44.0084C15.04 43.3684 14.96 42.5364 15.024 41.5124C15.216 40.4244 15.312 37.7204 15.312 33.4004V30.5684C13.712 32.4244 11.728 33.9764 9.36 35.2244C6.992 36.4404 4.048 37.2724 0.528 37.7204H0.432ZM20.064 26.8724C20.096 27.3204 20.112 28.0404 20.112 29.0324L24.144 28.3124C24.272 28.2804 24.4 28.2484 24.528 28.2164C24.688 28.1844 24.864 28.1684 25.056 28.1684C25.152 28.1684 25.296 28.2004 25.488 28.2644C25.84 28.3604 26.176 28.6804 26.496 29.2244C26.816 29.7364 27.008 30.1524 27.072 30.4724C27.168 30.8564 27.104 31.1924 26.88 31.4804C26.656 31.7364 26.272 31.8644 25.728 31.8644C24.544 31.8644 23.536 31.9604 22.704 32.1524C21.904 32.3124 21.424 32.4084 21.264 32.4404H21.12C20.768 32.4404 20.432 32.2804 20.112 31.9604V34.3124C20.688 34.2484 22.032 34.0084 24.144 33.5924C24.592 33.5284 24.88 33.4964 25.008 33.4964C25.232 33.4964 25.392 33.5124 25.488 33.5444C25.84 33.6404 26.176 33.9604 26.496 34.5044C26.816 35.0164 27.008 35.4324 27.072 35.7524C27.168 36.1684 27.104 36.5044 26.88 36.7604C26.656 37.0164 26.272 37.1444 25.728 37.1444C24.544 37.1444 23.536 37.2404 22.704 37.4324C21.904 37.5924 21.424 37.6884 21.264 37.7204H21.12C20.768 37.7204 20.432 37.5604 20.112 37.2404V39.0164C22.384 38.7924 24.832 38.6324 27.456 38.5364H27.6V26.5364C27.6 26.3764 27.536 26.2484 27.408 26.1524C27.28 26.0244 27.168 25.9764 27.072 26.0084C25.472 26.2324 23.952 26.4244 22.512 26.5844L20.064 26.8724Z" fill="#9C7047"/>
<path d="M58.752 32.8244C57.664 32.8244 56.592 32.2164 55.536 31.0004C55.248 30.5844 55.008 30.1044 54.816 29.5604C54.624 28.9844 54.432 28.1044 54.24 26.9204C53.92 24.5844 53.536 22.4404 53.088 20.4884C52.64 18.5364 52.048 16.3284 51.312 13.8644C51.216 13.5764 51.168 13.3204 51.168 13.0964C51.168 12.5204 51.632 12.2324 52.56 12.2324C53.488 12.2324 54.416 12.3444 55.344 12.5684C56.272 12.7924 56.96 13.0644 57.408 13.3844C57.632 13.5124 57.808 13.7044 57.936 13.9604C59.92 13.8324 62.704 13.5764 66.288 13.1924C66.288 10.4724 66.256 7.83242 66.192 5.27242C66.16 4.40842 66.096 3.68842 66 3.11242C65.904 2.53642 65.744 1.97642 65.52 1.43242C65.392 0.984421 65.328 0.69642 65.328 0.56842C65.328 0.0884206 65.792 -0.087579 66.72 0.0404212C67.968 0.168421 69.12 0.392421 70.176 0.712421C71.264 1.00042 72.112 1.30442 72.72 1.62442C73.072 1.84842 73.248 2.16842 73.248 2.58442C73.248 2.87242 73.168 3.22442 73.008 3.64042C72.816 4.18442 72.688 5.01642 72.624 6.13642C72.528 8.92042 72.48 11.0324 72.48 12.4724C77.6 11.8004 80.736 11.1924 81.888 10.6484C82.272 10.4564 82.608 10.3604 82.896 10.3604C83.248 10.3604 83.584 10.4724 83.904 10.6964C85.664 11.9444 87.104 13.2884 88.224 14.7284C88.48 15.0484 88.608 15.3684 88.608 15.6884C88.608 16.1364 88.368 16.5364 87.888 16.8884C87.312 17.3684 86.896 18.0244 86.64 18.8564C85.744 21.5124 84.896 24.2964 84.096 27.2084C83.872 27.9444 83.408 28.6324 82.704 29.2724C82 29.8804 81.2 30.3124 80.304 30.5684C79.92 30.6964 79.52 30.7604 79.104 30.7604C78.272 30.7604 77.584 30.2804 77.04 29.3204C76.848 28.9684 76.592 28.5844 76.272 28.1684C75.376 28.2004 74.064 28.2804 72.336 28.4084L72.384 37.6244C72.416 38.8724 72.432 40.3924 72.432 42.1844C72.432 44.1044 72.176 45.6244 71.664 46.7444C71.184 47.8644 70.576 48.4244 69.84 48.4244C69.648 48.4244 69.424 48.3764 69.168 48.2804C68.144 47.7364 67.296 46.6644 66.624 45.0644C65.984 43.4964 65.744 41.8804 65.904 40.2164C66.096 37.4964 66.224 33.8004 66.288 29.1284C64.4 29.3844 62.576 29.7524 60.816 30.2324C60.912 31.0644 60.752 31.7044 60.336 32.1524C59.952 32.6004 59.424 32.8244 58.752 32.8244ZM59.952 25.2884C62 25.1284 64.128 24.9364 66.336 24.7124V17.3204C63.616 17.7364 61.392 18.1524 59.664 18.5684C59.376 18.6644 59.088 18.7124 58.8 18.7124L59.952 25.2884ZM78.432 23.3684C79.136 21.3524 79.76 19.0004 80.304 16.3124V16.2164C80.304 15.9924 80.224 15.8804 80.064 15.8804C77.472 15.9764 74.928 16.1844 72.432 16.5044C72.4 18.1044 72.384 20.6324 72.384 24.0884L78.432 23.3684Z" fill="#9C7047"/>
<path d="M108.24 37.8644C110.8 37.5444 114.016 37.2404 117.888 36.9524C121.76 36.6644 125.008 36.4884 127.632 36.4244C125.84 34.6644 124.416 33.3204 123.36 32.3924C122.304 31.4324 121.264 30.6484 120.24 30.0404C119.792 29.7204 119.536 29.4004 119.472 29.0804C118.352 31.4164 116.912 33.2084 115.152 34.4564C113.424 35.6724 111.312 36.7604 108.816 37.7204L108.24 37.8644ZM98.832 41.1764C98.704 40.8884 98.64 40.5844 98.64 40.2644C98.64 39.7204 98.928 39.0964 99.504 38.3924C99.92 37.9764 100.176 37.5924 100.272 37.2404C100.368 36.8564 100.464 36.2004 100.56 35.2724C101.072 29.4804 101.328 24.0884 101.328 19.0964C101.328 13.4644 100.96 9.12842 100.224 6.08842C100.192 6.02442 100.176 5.91242 100.176 5.75242C100.176 5.27242 100.544 5.03242 101.28 5.03242C102.08 5.03242 102.96 5.14442 103.92 5.36842C104.88 5.59242 105.664 5.88042 106.272 6.23242C109.888 6.07242 113.952 5.75242 118.464 5.27242C122.976 4.79242 126.352 4.21642 128.592 3.54442C128.976 3.38442 129.36 3.30442 129.744 3.30442C130.256 3.30442 130.672 3.44842 130.992 3.73642C131.44 4.08842 131.824 4.52042 132.144 5.03242C132.496 5.51242 132.896 6.15242 133.344 6.95242C133.536 7.27242 133.632 7.68842 133.632 8.20042C133.632 8.77642 133.456 9.25642 133.104 9.64042C132.944 9.86442 132.8 10.0244 132.672 10.1204C132.544 10.1844 132.368 10.2164 132.144 10.2164C131.856 10.2164 131.472 10.1684 130.992 10.0724C129.84 9.97642 128.24 9.92842 126.192 9.92842C122.928 9.92842 119.392 10.0404 115.584 10.2644C116.128 10.6164 116.624 11.0324 117.072 11.5124C117.328 11.7684 117.456 12.1044 117.456 12.5204C117.456 12.9044 117.376 13.3044 117.216 13.7204L120.624 12.8564L123.648 12.1364C124.096 12.0724 124.384 12.0404 124.512 12.0404C124.96 12.0404 125.328 12.1684 125.616 12.4244C126.384 12.9364 127.152 13.9284 127.92 15.4004C128.016 15.5924 128.064 15.7684 128.064 15.9284C128.064 16.3444 127.712 16.6484 127.008 16.8404C126.016 17.0644 124.432 17.3364 122.256 17.6564C122.576 18.0724 122.736 18.5364 122.736 19.0484C122.736 19.4964 122.624 19.9764 122.4 20.4884C122.336 20.6484 122.272 20.8244 122.208 21.0164C125.376 20.3124 127.248 19.8804 127.824 19.7204C128.272 19.6244 128.608 19.5764 128.832 19.5764C129.28 19.5764 129.68 19.7364 130.032 20.0564C130.48 20.3444 130.944 20.7924 131.424 21.4004C131.936 21.9764 132.352 22.5524 132.672 23.1284C132.8 23.3524 132.864 23.5924 132.864 23.8484C132.864 24.1044 132.784 24.3284 132.624 24.5204C132.464 24.6804 132.224 24.7764 131.904 24.8084L130.608 24.9524C127.408 25.2724 124.08 25.6564 120.624 26.1044C120.304 27.0964 120 27.9284 119.712 28.6004C119.808 28.5044 120.064 28.3924 120.48 28.2644C121.056 28.1684 121.728 28.1204 122.496 28.1204C123.584 28.1204 124.704 28.2324 125.856 28.4564C127.008 28.6804 128.016 29.0004 128.88 29.4164C129.776 29.8324 130.464 30.3924 130.944 31.0964C131.456 31.8004 131.712 32.5364 131.712 33.3044C131.712 34.3924 131.264 35.4324 130.368 36.4244C131.04 36.4244 131.552 36.4724 131.904 36.5684C132.288 36.6644 132.672 36.8404 133.056 37.0964C133.888 37.7044 134.64 38.4724 135.312 39.4004C135.984 40.2964 136.32 41.2404 136.32 42.2324C136.32 42.8084 136.176 43.2084 135.888 43.4324C135.6 43.6884 135.264 43.7844 134.88 43.7204C133.76 43.4644 131.488 43.2404 128.064 43.0484C124.64 42.8564 121.12 42.7604 117.504 42.7604C112.8 42.7604 109.28 42.9204 106.944 43.2404C104.64 43.5924 103.136 43.9124 102.432 44.2004C101.952 44.3604 101.664 44.4404 101.568 44.4404C101.344 44.4404 101.168 44.3604 101.04 44.2004C100.72 44.0084 100.4 43.6724 100.08 43.1924C99.76 42.7444 99.344 42.0724 98.832 41.1764ZM107.856 37.9124H107.76C107.44 37.9124 107.264 37.8324 107.232 37.6724C107.2 37.5124 107.248 37.3684 107.376 37.2404C108.912 35.8964 110.288 34.3444 111.504 32.5844C112.752 30.8244 113.744 29.0004 114.48 27.1124C113.36 27.3044 112.496 27.5284 111.888 27.7844C111.728 27.8484 111.504 27.8804 111.216 27.8804C110.8 27.8804 110.416 27.8004 110.064 27.6404C109.712 27.4484 109.488 27.3364 109.392 27.3044C109.008 27.1124 108.592 26.7604 108.144 26.2484C107.696 25.7044 107.344 25.1764 107.088 24.6644C107.024 24.4084 106.992 24.2324 106.992 24.1364C106.992 23.6244 107.248 23.3524 107.76 23.3204C109.392 23.2884 112.016 22.9364 115.632 22.2644C115.792 20.5044 115.856 19.2404 115.824 18.4724C115.216 18.4084 114.688 18.2324 114.24 17.9444C112.032 20.0564 109.6 21.6084 106.944 22.6004C106.624 30.1524 106.448 35.3204 106.416 38.1044L107.856 37.9124ZM106.992 20.8724C108.112 19.5924 109.04 18.1684 109.776 16.6004C110.544 15.0004 111.04 13.4484 111.264 11.9444C111.36 11.4644 111.408 11.0324 111.408 10.6484L110.256 10.8404C109.84 10.9364 109.44 10.9844 109.056 10.9844C108.48 10.9844 107.936 10.8724 107.424 10.6484L106.992 20.8724Z" fill="#9C7047"/>
<path d="M50.7391 67.1204H49.0438L45.9813 63.7776L45.1473 64.5706V67.1204H43.8622V56.4837H45.1473V63.306L48.8593 59.4847H50.4794L46.9315 63.012L50.7391 67.1204Z" fill="#9C7047"/>
<path d="M58.4462 67.1204H57.1679V66.3069C57.054 66.3844 56.899 66.4938 56.7031 66.6351C56.5117 66.7718 56.3248 66.8812 56.1425 66.9632C55.9283 67.068 55.6822 67.1546 55.4043 67.223C55.1263 67.2959 54.8004 67.3323 54.4267 67.3323C53.7386 67.3323 53.1552 67.1045 52.6767 66.6487C52.1982 66.193 51.9589 65.612 51.9589 64.9056C51.9589 64.3268 52.082 63.8597 52.3281 63.5042C52.5787 63.1442 52.9342 62.8616 53.3945 62.6566C53.8593 62.4515 54.4176 62.3125 55.0693 62.2396C55.721 62.1666 56.4205 62.112 57.1679 62.0755V61.8773C57.1679 61.5856 57.1155 61.3441 57.0107 61.1526C56.9104 60.9612 56.7646 60.8109 56.5732 60.7015C56.3909 60.5967 56.1722 60.526 55.9169 60.4896C55.6617 60.4531 55.3951 60.4349 55.1171 60.4349C54.7799 60.4349 54.4039 60.4804 53.9892 60.5716C53.5745 60.6582 53.1461 60.7858 52.7041 60.9544H52.6357V59.6487C52.8863 59.5804 53.2487 59.5052 53.7226 59.4232C54.1966 59.3411 54.6637 59.3001 55.124 59.3001C55.6617 59.3001 56.1289 59.3457 56.5253 59.4368C56.9264 59.5234 57.2727 59.6738 57.5644 59.888C57.8515 60.0976 58.0703 60.3688 58.2207 60.7015C58.371 61.0342 58.4462 61.4466 58.4462 61.9388V67.1204ZM57.1679 65.2405V63.1146C56.776 63.1373 56.3134 63.1715 55.7802 63.2171C55.2516 63.2627 54.8323 63.3288 54.5224 63.4153C54.1533 63.5202 53.8548 63.6842 53.6269 63.9075C53.399 64.1263 53.2851 64.4293 53.2851 64.8167C53.2851 65.2542 53.4173 65.5846 53.6816 65.8079C53.9459 66.0267 54.3492 66.136 54.8916 66.136C55.3427 66.136 55.7552 66.0495 56.1289 65.8763C56.5026 65.6985 56.8489 65.4866 57.1679 65.2405Z" fill="#9C7047"/>
<path d="M67.7256 67.1204H66.4405V62.7728C66.4405 62.4219 66.42 62.0937 66.3789 61.7884C66.3379 61.4785 66.2627 61.237 66.1534 61.0638C66.0394 60.8724 65.8754 60.7311 65.6612 60.64C65.447 60.5443 65.169 60.4964 64.8272 60.4964C64.4763 60.4964 64.1094 60.583 63.7266 60.7562C63.3438 60.9293 62.9769 61.1504 62.626 61.4193V67.1204H61.3409V59.4847H62.626V60.3323C63.0271 59.9997 63.4418 59.7399 63.8702 59.553C64.2985 59.3662 64.7383 59.2728 65.1895 59.2728C66.0144 59.2728 66.6433 59.5211 67.0762 60.0179C67.5091 60.5146 67.7256 61.2301 67.7256 62.1644V67.1204Z" fill="#9C7047"/>
<path d="M76.1573 67.1204H69.9913V66.1702L74.4415 60.5579H70.087V59.4847H76.0411V60.4007L71.5704 66.0335H76.1573V67.1204Z" fill="#9C7047"/>
<path d="M84.9992 59.4847L80.5422 69.9368H79.1682L80.59 66.7513L77.548 59.4847H78.9426L81.2873 65.1448L83.6525 59.4847H84.9992Z" fill="#9C7047"/>
<path d="M89.1995 67.1204H87.5657V65.1722H89.1995V67.1204Z" fill="#9C7047"/>
<path d="M98.2669 66.6419C97.8386 66.847 97.4307 67.0065 97.0433 67.1204C96.6605 67.2344 96.2526 67.2913 95.8197 67.2913C95.2683 67.2913 94.7624 67.2116 94.3021 67.0521C93.8418 66.888 93.4476 66.6419 93.1195 66.3138C92.7868 65.9857 92.5293 65.5709 92.347 65.0696C92.1647 64.5683 92.0736 63.9827 92.0736 63.3128C92.0736 62.0641 92.4154 61.0843 93.099 60.3734C93.7871 59.6624 94.694 59.3069 95.8197 59.3069C96.2572 59.3069 96.6856 59.3685 97.1048 59.4915C97.5287 59.6146 97.916 59.765 98.2669 59.9427V61.3714H98.1986C97.8067 61.0661 97.4011 60.8314 96.9818 60.6673C96.5671 60.5032 96.1615 60.4212 95.765 60.4212C95.0358 60.4212 94.4593 60.6673 94.0355 61.1595C93.6162 61.6471 93.4066 62.3649 93.4066 63.3128C93.4066 64.2334 93.6117 64.942 94.0218 65.4388C94.4365 65.931 95.0176 66.1771 95.765 66.1771C96.0248 66.1771 96.2891 66.1429 96.558 66.0745C96.8268 66.0062 97.0684 65.9173 97.2826 65.8079C97.4694 65.7122 97.6449 65.612 97.8089 65.5071C97.973 65.3978 98.1029 65.3043 98.1986 65.2269H98.2669V66.6419Z" fill="#9C7047"/>
<path d="M106.726 67.1204H105.441V62.7728C105.441 62.4219 105.42 62.0937 105.379 61.7884C105.338 61.4785 105.263 61.237 105.154 61.0638C105.04 60.8724 104.876 60.7311 104.662 60.64C104.447 60.5443 104.169 60.4964 103.828 60.4964C103.477 60.4964 103.11 60.583 102.727 60.7562C102.344 60.9293 101.977 61.1504 101.626 61.4193V67.1204H100.341V59.4847H101.626V60.3323C102.027 59.9997 102.442 59.7399 102.871 59.553C103.299 59.3662 103.739 59.2728 104.19 59.2728C105.015 59.2728 105.644 59.5211 106.077 60.0179C106.51 60.5146 106.726 61.2301 106.726 62.1644V67.1204Z" fill="#9C7047"/>
</svg>
